<?xml version="1.0" encoding="utf-8"?>
<!-- Generator: Adobe Illustrator 25.3.1, SVG Export Plug-In . SVG Version: 6.00 Build 0)  -->
<svg version="1.1" id="Layer_1" xmlns="http://www.w3.org/2000/svg" xmlns:xlink="http://www.w3.org/1999/xlink" x="0px" y="0px"
	 viewBox="0 0 30 30" style="enable-background:new 0 0 30 30;" xml:space="preserve">
<style type="text/css">
	.st0{fill-rule:evenodd;clip-rule:evenodd;fill:#EAEAEA;}
</style>
<path class="st0" d="M26.3,0c2,0,3.7,1.6,3.7,3.7v22.7c0,2-1.6,3.7-3.7,3.7h-6.2V18.7H24l0.7-4.8h-4.6v-3.1c0-1.3,0.6-2.6,2.7-2.6
	h2.1V4c0,0-1.9-0.3-3.7-0.3c-3.8,0-6.3,2.3-6.3,6.5v3.7h-4.3v4.8h4.3V30H3.7c-2,0-3.7-1.6-3.7-3.7V3.7C0,1.6,1.6,0,3.7,0H26.3
	L26.3,0z"/>
</svg>
