<svg width="30" height="33" viewBox="0 0 30 33" fill="none" xmlns="http://www.w3.org/2000/svg">
<path d="M5.69777 0.907715C2.78517 0.907715 0.439941 3.50904 0.439941 6.73971V27.0154C0.439941 30.2461 2.78517 32.8474 5.69777 32.8474H15.6051V20.361H12.6284V15.8655H15.6051V12.0247C15.6051 9.00723 17.3639 6.23666 21.4155 6.23666C23.0559 6.23666 24.2689 6.41134 24.2689 6.41134L24.1735 10.6094C24.1735 10.6094 22.9364 10.5965 21.5864 10.5965C20.1254 10.5965 19.8911 11.3431 19.8911 12.5827V15.8655H24.2896L24.0979 20.361H19.8911V32.8475H23.9773C26.8899 32.8475 29.2351 30.2461 29.2351 27.0155V6.73974C29.2351 3.50907 26.8899 0.907747 23.9773 0.907747H5.69774L5.69777 0.907715Z" fill="#EAEAEA"/>
</svg>
