<?xml version="1.0" encoding="utf-8"?>
<!-- Generator: Adobe Illustrator 25.3.1, SVG Export Plug-In . SVG Version: 6.00 Build 0)  -->
<svg version="1.1" id="Layer_1" xmlns="http://www.w3.org/2000/svg" xmlns:xlink="http://www.w3.org/1999/xlink" x="0px" y="0px"
	 viewBox="0 0 30 30" style="enable-background:new 0 0 30 30;" xml:space="preserve">
<style type="text/css">
	.st0{fill:#EAEAEA;}
</style>
<circle class="st0" cx="15" cy="15" r="5"/>
<path class="st0" d="M21.2,0H8.7C3.9,0,0,3.9,0,8.8v12.5C0,26.1,3.9,30,8.8,30h12.5c4.8,0,8.7-3.9,8.7-8.8V8.7C30,3.9,26.1,0,21.2,0
	z M15,22.5c-4.1,0-7.5-3.4-7.5-7.5s3.4-7.5,7.5-7.5s7.5,3.4,7.5,7.5S19.1,22.5,15,22.5z M23.8,7.5c-0.7,0-1.2-0.6-1.2-1.2
	S23.1,5,23.8,5S25,5.6,25,6.2S24.4,7.5,23.8,7.5z"/>
</svg>
