<svg width="30" height="33" viewBox="0 0 30 33" fill="none" xmlns="http://www.w3.org/2000/svg">
<path d="M8.3999 0.545654C3.9823 0.545654 0.399902 4.51927 0.399902 9.41929V23.6171C0.399902 28.5171 3.9823 32.4907 8.3999 32.4907H21.1999C25.6175 32.4907 29.1999 28.5171 29.1999 23.6171V9.41929C29.1999 4.51927 25.6175 0.545654 21.1999 0.545654H8.3999ZM24.3999 4.09511C25.2831 4.09511 25.9999 4.89018 25.9999 5.86983C25.9999 6.84948 25.2831 7.64456 24.3999 7.64456C23.5167 7.64456 22.7999 6.84948 22.7999 5.86983C22.7999 4.89018 23.5167 4.09511 24.3999 4.09511ZM14.7999 7.64456C19.2175 7.64456 22.7999 11.6182 22.7999 16.5182C22.7999 21.4182 19.2175 25.3918 14.7999 25.3918C10.3823 25.3918 6.7999 21.4182 6.7999 16.5182C6.7999 11.6182 10.3823 7.64456 14.7999 7.64456ZM14.7999 11.194C13.5269 11.194 12.306 11.755 11.4058 12.7534C10.5056 13.7519 9.9999 15.1061 9.9999 16.5182C9.9999 17.9303 10.5056 19.2845 11.4058 20.283C12.306 21.2814 13.5269 21.8424 14.7999 21.8424C16.0729 21.8424 17.2938 21.2814 18.194 20.283C19.0942 19.2845 19.5999 17.9303 19.5999 16.5182C19.5999 15.1061 19.0942 13.7519 18.194 12.7534C17.2938 11.755 16.0729 11.194 14.7999 11.194Z" fill="#EAEAEA"/>
</svg>
