<svg width="30" height="33" viewBox="0 0 30 33" fill="none" xmlns="http://www.w3.org/2000/svg">
<path d="M25.9999 0.73584H3.5999C1.8319 0.73584 0.399902 2.32422 0.399902 4.28529V29.1315C0.399902 31.0926 1.8319 32.6809 3.5999 32.6809H25.9999C27.7679 32.6809 29.1999 31.0926 29.1999 29.1315V4.28529C29.1999 2.32422 27.7679 0.73584 25.9999 0.73584ZM9.9999 25.582H5.9631V13.1589H9.9999V25.582ZM7.9103 10.882C6.6767 10.882 5.8527 9.96975 5.8527 8.75228C5.8527 7.53482 6.6751 6.62261 8.0463 6.62261C9.2799 6.62261 10.1039 7.53482 10.1039 8.75228C10.1039 9.96975 9.2815 10.882 7.9103 10.882ZM24.3999 25.582H20.4927V18.7919C20.4927 16.9143 19.4511 16.4812 19.0607 16.4812C18.6703 16.4812 17.3679 16.7705 17.3679 18.7919C17.3679 19.0812 17.3679 25.582 17.3679 25.582H13.3311V13.1589H17.3679V14.8928C17.8879 13.8812 18.9295 13.1589 20.8831 13.1589C22.8367 13.1589 24.3999 14.8928 24.3999 18.7919V25.582Z" fill="#EAEAEA"/>
</svg>
