<?xml version="1.0" encoding="utf-8"?>
<!-- Generator: Adobe Illustrator 25.3.1, SVG Export Plug-In . SVG Version: 6.00 Build 0)  -->
<svg version="1.1" id="Layer_1" xmlns="http://www.w3.org/2000/svg" xmlns:xlink="http://www.w3.org/1999/xlink" x="0px" y="0px"
	 viewBox="0 0 30 30" style="enable-background:new 0 0 30 30;" xml:space="preserve">
<style type="text/css">
	.st0{fill:#EAEAEA;}
</style>
<path class="st0" d="M16.7,13.8L16.7,13.8C16.7,13.7,16.7,13.7,16.7,13.8L16.7,13.8z"/>
<path class="st0" d="M27.7,0H2.3C1.1,0,0.1,1,0.1,2.1v25.7c0,1.2,1,2.1,2.2,2.1h25.4c1.2,0,2.2-1,2.2-2.1V2.1C29.9,1,28.9,0,27.7,0z
	 M9.1,25.1H4.6V11.6h4.5C9.1,11.6,9.1,25.1,9.1,25.1z M6.9,9.7L6.9,9.7c-1.5,0-2.5-1-2.5-2.3C4.3,6,5.3,5,6.9,5c1.5,0,2.5,1,2.5,2.3
	C9.4,8.7,8.4,9.7,6.9,9.7z M25.3,25.1h-4.5v-7.2c0-1.8-0.7-3.1-2.3-3.1c-1.2,0-2,0.8-2.3,1.6c-0.1,0.3-0.1,0.7-0.1,1.1v7.6h-4.5
	c0,0,0.1-12.3,0-13.5h4.5v1.9c0.6-0.9,1.7-2.2,4.1-2.2c3,0,5.2,1.9,5.2,6.1L25.3,25.1L25.3,25.1z"/>
</svg>
