<svg width="36" height="24" viewBox="0 0 36 24" fill="none" xmlns="http://www.w3.org/2000/svg">
<path d="M1.148 2.572L16.148 10.63C16.652 10.9 17.304 11.028 17.96 11.028C18.616 11.028 19.268 10.9 19.772 10.63L34.772 2.572C35.75 2.046 36.674 0 34.88 0H1.042C-0.751997 0 0.172003 2.046 1.148 2.572ZM35.226 6.978L19.772 15.032C19.092 15.388 18.616 15.43 17.96 15.43C17.304 15.43 16.828 15.388 16.148 15.032C15.468 14.676 1.882 7.554 0.772003 6.976C-0.00799668 6.568 3.23212e-06 7.046 3.23212e-06 7.414V22C3.23212e-06 22.84 1.132 24 2 24H34C34.868 24 36 22.84 36 22V7.416C36 7.048 36.008 6.57 35.226 6.978Z" fill="#82E5D3"/>
</svg>
