<svg width="30" height="30" viewBox="0 0 30 30" fill="none" xmlns="http://www.w3.org/2000/svg">
<path d="M16.6666 8.33308C20.1716 8.33308 21.6666 9.82808 21.6666 13.3331H25C25 7.95808 22.0416 4.99975 16.6666 4.99975V8.33308ZM22.37 17.4047C22.0497 17.1137 21.6289 16.9584 21.1963 16.9718C20.7638 16.9852 20.3533 17.1661 20.0516 17.4764L16.0633 21.5781C15.1033 21.3947 13.1733 20.7931 11.1866 18.8114C9.19998 16.8231 8.59832 14.8881 8.41998 13.9347L12.5183 9.94475C12.829 9.64329 13.0102 9.23278 13.0236 8.80009C13.037 8.3674 12.8815 7.94648 12.59 7.62641L6.43165 0.854747C6.14005 0.533675 5.73478 0.338921 5.3019 0.311847C4.86903 0.284772 4.44265 0.427511 4.11332 0.709747L0.496649 3.81141C0.2085 4.10061 0.0365142 4.4855 0.013315 4.89308C-0.011685 5.30975 -0.488351 15.1797 7.16498 22.8364C13.8416 29.5114 22.205 29.9997 24.5083 29.9997C24.845 29.9997 25.0516 29.9897 25.1066 29.9864C25.5142 29.9636 25.8989 29.7908 26.1866 29.5014L29.2866 25.8831C29.5691 25.554 29.7121 25.1277 29.6854 24.6948C29.6586 24.262 29.4641 23.8566 29.1433 23.5647L22.37 17.4047Z" fill="#82E5D3"/>
</svg>
