<?xml version="1.0" encoding="utf-8"?>
<!-- Generator: Adobe Illustrator 25.3.1, SVG Export Plug-In . SVG Version: 6.00 Build 0)  -->
<svg version="1.1" id="Layer_1" xmlns="http://www.w3.org/2000/svg" xmlns:xlink="http://www.w3.org/1999/xlink" x="0px" y="0px"
	 viewBox="0 0 30 30" style="enable-background:new 0 0 30 30;" xml:space="preserve">
<style type="text/css">
	.st0{fill-rule:evenodd;clip-rule:evenodd;fill:#EAEAEA;}
</style>
<path class="st0" d="M26.3,0c2,0,3.7,1.6,3.7,3.7v22.7c0,2-1.6,3.7-3.7,3.7H3.7c-2,0-3.7-1.6-3.7-3.7V3.7C0,1.6,1.6,0,3.7,0H26.3
	L26.3,0z M11.5,24.9c8,0,12.3-6.6,12.3-12.3c0-0.2,0-0.4,0-0.6c0.8-0.6,1.6-1.4,2.2-2.2c-0.8,0.3-1.6,0.6-2.5,0.7
	C24.3,9.9,25,9.1,25.3,8c-0.8,0.5-1.8,0.9-2.7,1.1c-0.8-0.8-1.9-1.4-3.2-1.4c-2.4,0-4.3,1.9-4.3,4.3c0,0.3,0,0.7,0.1,1
	c-3.6-0.2-6.8-1.9-8.9-4.5c-0.4,0.6-0.6,1.4-0.6,2.2c0,1.4,0.7,2.8,1.9,3.6c-0.7,0-1.4-0.2-2-0.5v0.1c0,2.1,1.5,3.8,3.5,4.2
	c-0.4,0.1-0.8,0.2-1.1,0.2c-0.3,0-0.5,0-0.8-0.1c0.5,1.7,2.1,3,4,3C9.8,22.3,7.9,23,5.9,23c-0.4,0-0.7,0-1-0.1
	C6.7,24.2,9,24.9,11.5,24.9L11.5,24.9z"/>
</svg>
