<svg width="30" height="33" viewBox="0 0 30 33" fill="none" xmlns="http://www.w3.org/2000/svg">
<path d="M25.9999 0.136963H3.5999C1.8319 0.136963 0.399902 1.72535 0.399902 3.68642V28.5326C0.399902 30.4937 1.8319 32.0821 3.5999 32.0821H25.9999C27.7679 32.0821 29.1999 30.4937 29.1999 28.5326V3.68642C29.1999 1.72535 27.7679 0.136963 25.9999 0.136963ZM22.8799 11.6975C22.8799 11.8502 22.8799 12.001 22.8799 12.3063C22.8799 18.0866 18.9023 24.7808 11.6335 24.7808C9.4399 24.7808 7.3823 24.0195 5.5999 22.8038C5.8735 22.8038 6.2863 22.8038 6.5599 22.8038C8.3423 22.8038 10.1263 22.0424 11.4975 20.9776C9.7151 20.9776 8.3439 19.6093 7.7951 17.9357C8.0687 17.9357 8.3439 18.0883 8.4815 18.0883C8.8927 18.0883 9.1679 18.0883 9.5791 17.9357C7.7967 17.4796 6.4255 15.806 6.4255 13.6764C6.9743 13.9798 7.5231 14.1325 8.2079 14.2851C7.1103 13.2203 6.4255 12.0028 6.4255 10.4819C6.4255 9.7205 6.5631 8.96091 6.9743 8.35218C8.8943 10.938 11.7743 12.7642 15.0655 12.915C15.0655 12.6115 14.9279 12.3063 14.9279 11.8502C14.9279 9.41702 16.7103 7.4382 18.9055 7.4382C20.0031 7.4382 21.0991 7.8943 21.7855 8.80651C22.7455 8.65389 23.5679 8.19778 24.2543 7.74167C23.9807 8.80651 23.2943 9.56787 22.4719 10.1748C23.2943 10.0222 23.9807 9.87135 24.8031 9.41347C24.2511 10.3292 23.5663 11.0888 22.8799 11.6975Z" fill="#EAEAEA"/>
</svg>
